<svg width="165" height="139" viewBox="0 0 165 139" fill="none" xmlns="http://www.w3.org/2000/svg">
<g clip-path="url(#clip0)">
<path d="M41.991 23.3739L42.238 4.97317C42.979 5.9678 43.7201 7.21109 44.4611 9.20036L50.3892 25.1145C47.9192 24.3685 45.2021 23.6225 41.991 23.3739ZM41.25 65.3971L41.991 25.1145C51.3772 27.6011 54.8353 34.8122 54.8353 44.7585C54.8353 55.9481 50.1422 62.9106 41.25 65.3971ZM34.0868 66.1431C28.6527 66.1431 24.4536 65.3971 21.7365 64.4025V24.3685L32.1108 24.1199C35.5689 24.1199 38.2859 24.3685 41.003 24.8658L40.015 65.6458C38.0389 65.8945 36.0629 66.1431 34.0868 66.1431ZM159.813 100.955L164.506 100.458L165 99.712H132.148L132.642 100.458L137.829 100.955C144.499 101.453 145.734 101.701 145.734 102.696V133.032C142.275 136.016 133.383 137.757 127.455 137.757C106.46 137.757 91.6392 120.599 91.6392 94.4902C91.6392 78.576 97.3204 64.8998 106.707 57.1914L107.201 82.8032C107.201 83.7979 106.213 84.5438 101.766 84.7925L95.5913 85.2898L95.0973 86.0358H126.961L126.467 85.2898L122.762 84.7925C116.34 84.0465 115.352 84.0465 115.352 83.0519L114.858 52.2182C118.316 50.975 122.268 50.229 126.467 50.229C135.853 50.229 142.769 53.4615 146.475 56.1968L154.626 74.8462H155.614L155.12 51.9696L148.698 55.2021C143.016 51.9696 136.1 48.9857 126.714 48.9857C122.515 48.9857 118.563 49.483 114.611 50.4776L113.87 3.48122C113.87 2.48658 114.858 1.74061 119.304 1.49195L125.726 0.994633L126.22 0H106.213L77.5599 73.8515H77.3129L49.6482 0H28.1587L28.6527 0.745975L32.1108 0.994633C35.5689 1.49195 39.521 1.98927 41.25 3.23256L40.756 23.1252C39.0269 22.8766 37.2979 22.8766 35.3219 22.8766H0.247006L0.741018 23.6225L5.92814 24.1199C12.3503 24.8658 13.0913 25.1145 13.0913 26.1091V105.68C13.0913 106.674 11.3623 107.42 6.91617 107.669L0.494012 108.166L0 109.161H35.8159L35.3219 108.415L28.8997 107.918C22.2305 107.42 21.2425 107.172 21.2425 106.177V66.1431C23.9596 66.6404 29.6407 67.1377 33.5928 67.1377C35.5689 67.1377 37.5449 66.8891 39.274 66.8891L39.0269 81.0626C39.0269 83.7979 35.5689 84.5438 29.8877 85.2898L26.4296 85.5385L25.9356 86.2844H55.8234L55.3293 85.5385L53.1063 85.2898C44.9551 84.7925 40.509 83.3005 40.509 81.3113L40.756 66.6404C50.1422 65.1485 57.0584 60.6726 60.7635 53.9589L72.8668 86.0358H74.1018L105.225 5.9678H105.472L106.46 53.2129C91.3922 60.6726 82.253 76.5868 82.253 95.4848C82.253 121.594 100.778 139.249 126.467 139.249C137.335 139.249 152.65 134.773 162.53 130.297L162.283 129.8L153.638 131.292V102.945C153.638 101.95 155.367 101.453 159.813 100.955Z" fill="black"/>
</g>
<defs>
<clipPath id="clip0">
<rect width="165" height="139" fill="white"/>
</clipPath>
</defs>
</svg>
