<svg width="290" height="38" viewBox="0 0 290 38" fill="none" xmlns="http://www.w3.org/2000/svg">
<g clip-path="url(#clip0)">
<path d="M31.1658 8.50256C28.3485 5.03224 23.4183 2.77653 18.8403 2.77653C9.68427 2.77653 2.11293 10.5847 2.11293 19.4341C2.11293 23.5984 3.87371 27.5893 7.04311 30.5391C10.0364 33.4889 14.4384 35.5711 18.8403 35.5711C23.0662 35.5711 28.3485 33.3153 31.1658 30.0185V33.1418C27.6442 35.9181 23.4183 37.6532 19.0164 37.6532C8.80388 37.6532 0 29.3245 0 19.2605C0 9.02311 8.80388 0.694336 19.1925 0.694336C23.5944 0.694336 27.9964 2.4295 31.3418 5.37927V8.50256H31.1658Z" fill="black"/>
<path d="M50.7104 5.89954L43.4912 23.2511H57.7535L50.7104 5.89954ZM42.7869 25.3333L37.8567 37.1324H35.3916L50.7104 0L66.0291 37.3059H63.564L58.6339 25.5068H42.7869V25.3333Z" fill="black"/>
<path d="M103.181 35.0505H118.324V37.3062H100.716V1.21484H103.181V35.0505Z" fill="black"/>
<path d="M80.2914 18.0459C82.5804 18.0459 84.8694 17.8724 86.6302 16.3107C88.391 14.9226 89.2714 12.8404 89.2714 10.5847C89.2714 7.98197 88.0388 5.20571 85.3977 4.16462C83.4608 3.29704 78.3546 3.29704 76.2416 3.29704H72.1918V18.0459H80.2914ZM78.5306 20.1281L93.1451 37.3062H90.5039L76.0656 20.3016H72.1918V37.3062H69.9028V1.21484H76.9459C79.9393 1.21484 85.3977 1.21484 87.8628 2.95C90.5039 4.68516 91.5604 7.63494 91.5604 10.7582C91.5604 17.0048 87.1584 20.3016 80.9957 20.1281" fill="black"/>
<path d="M121.494 19.2605C121.494 28.1099 129.065 35.571 138.221 35.571C147.377 35.571 154.948 28.1099 154.948 19.2605C154.948 10.4112 147.377 2.95004 138.221 2.95004C129.065 2.95004 121.494 10.4112 121.494 19.2605ZM157.237 19.2605C157.237 29.3245 148.61 37.8268 138.221 37.8268C128.008 37.8268 119.205 29.498 119.205 19.2605C119.205 9.19662 127.832 0.694336 138.221 0.694336C148.434 0.694336 157.237 9.0231 157.237 19.2605Z" fill="black"/>
<path d="M179.071 7.11412C177.486 4.51138 175.021 2.77622 171.676 2.77622C167.802 2.77622 164.809 5.8995 164.809 9.71686C164.809 13.5342 168.506 15.0958 171.324 16.484L178.367 20.1278C181.184 21.863 182.593 24.1187 182.593 27.242C182.593 33.1415 177.134 37.6529 171.147 37.6529C166.041 37.6529 161.991 34.5296 160.407 29.8447L162.52 28.9771C164.104 32.7945 166.922 35.3972 171.324 35.3972C176.078 35.3972 180.304 31.7534 180.304 26.8949C180.304 22.9041 176.078 21.1689 172.908 19.6073L166.393 16.1369C163.928 14.5753 162.52 12.4931 162.52 9.71686C162.52 4.33786 166.393 0.520508 171.852 0.520508C175.549 0.520508 179.071 2.42918 180.832 5.55247L179.071 7.11412Z" fill="black"/>
<path d="M206.715 19.4334C206.715 28.2827 214.286 35.7439 223.442 35.7439C232.599 35.7439 240.17 28.2827 240.17 19.4334C240.17 10.5841 232.599 3.1229 223.442 3.1229C214.286 3.1229 206.715 10.5841 206.715 19.4334ZM242.283 19.4334C242.283 29.4973 233.655 37.9996 223.266 37.9996C213.054 37.9996 204.25 29.6708 204.25 19.4334C204.25 9.36947 212.878 0.867188 223.266 0.867188C233.655 1.0407 242.283 9.36947 242.283 19.4334Z" fill="black"/>
<path d="M256.721 37.48H254.432V3.64438H244.924V1.38867H266.229V3.64438H256.721V37.48Z" fill="black"/>
<path d="M280.492 37.48H278.203V3.64438H268.695V1.38867H290V3.64438H280.492V37.48Z" fill="black"/>
</g>
<defs>
<clipPath id="clip0">
<rect width="290" height="38" fill="white"/>
</clipPath>
</defs>
</svg>
